<mxfile host="app.diagrams.net" agent="Mozilla/5.0 (Windows NT 10.0; Win64; x64) AppleWebKit/537.36 (KHTML, like Gecko) Chrome/133.0.0.0 Safari/537.36" scale="1" border="0" version="26.0.16">
  <diagram name="Page-1" id="13e1069c-82ec-6db2-03f1-153e76fe0fe0">
    <mxGraphModel dx="1295" dy="486" grid="1" gridSize="10" guides="1" tooltips="1" connect="1" arrows="1" fold="1" page="1" pageScale="1" pageWidth="1100" pageHeight="850" background="none" math="0" shadow="0">
      <root>
        <mxCell id="0" />
        <mxCell id="1" parent="0" />
        <mxCell id="qz0fs1x4AFDZn3nVevzl-28" value="Add File to Mana" style="shape=umlLifeline;perimeter=lifelinePerimeter;whiteSpace=wrap;html=1;container=1;collapsible=0;recursiveResize=0;outlineConnect=0;rounded=1;shadow=0;comic=0;labelBackgroundColor=none;strokeWidth=1;fontFamily=Verdana;fontSize=12;align=center;" parent="1" vertex="1">
          <mxGeometry x="1440" y="420" width="100" height="350" as="geometry" />
        </mxCell>
        <mxCell id="qz0fs1x4AFDZn3nVevzl-30" value="" style="html=1;points=[];perimeter=orthogonalPerimeter;rounded=0;shadow=0;comic=0;labelBackgroundColor=none;strokeWidth=1;fontFamily=Verdana;fontSize=12;align=center;" parent="1" vertex="1">
          <mxGeometry x="1485" y="720" width="10" height="50" as="geometry" />
        </mxCell>
        <mxCell id="qz0fs1x4AFDZn3nVevzl-31" value="Scan" style="shape=umlLifeline;perimeter=lifelinePerimeter;whiteSpace=wrap;html=1;container=1;collapsible=0;recursiveResize=0;outlineConnect=0;rounded=1;shadow=0;comic=0;labelBackgroundColor=none;strokeWidth=1;fontFamily=Verdana;fontSize=12;align=center;" parent="1" vertex="1">
          <mxGeometry x="980" y="420" width="100" height="330" as="geometry" />
        </mxCell>
        <mxCell id="qz0fs1x4AFDZn3nVevzl-32" value="" style="html=1;points=[];perimeter=orthogonalPerimeter;rounded=0;shadow=0;comic=0;labelBackgroundColor=none;strokeWidth=1;fontFamily=Verdana;fontSize=12;align=center;" parent="qz0fs1x4AFDZn3nVevzl-31" vertex="1">
          <mxGeometry x="45" y="100" width="10" height="230" as="geometry" />
        </mxCell>
        <mxCell id="qz0fs1x4AFDZn3nVevzl-34" value="" style="html=1;verticalAlign=bottom;endArrow=block;labelBackgroundColor=none;fontFamily=Verdana;fontSize=12;edgeStyle=orthogonalEdgeStyle;elbow=vertical;" parent="qz0fs1x4AFDZn3nVevzl-31" edge="1">
          <mxGeometry x="0.1226" y="10" relative="1" as="geometry">
            <mxPoint x="55" y="203" as="sourcePoint" />
            <mxPoint x="55" y="227" as="targetPoint" />
            <Array as="points">
              <mxPoint x="89" y="203" />
              <mxPoint x="89" y="227" />
              <mxPoint x="55" y="227" />
            </Array>
            <mxPoint as="offset" />
          </mxGeometry>
        </mxCell>
        <mxCell id="qz0fs1x4AFDZn3nVevzl-35" value="&lt;font style=&quot;font-size: 12px;&quot;&gt;Spill local&lt;/font&gt;" style="edgeLabel;html=1;align=center;verticalAlign=middle;resizable=0;points=[];" parent="qz0fs1x4AFDZn3nVevzl-34" vertex="1" connectable="0">
          <mxGeometry x="-0.3663" y="1" relative="1" as="geometry">
            <mxPoint x="18" y="5" as="offset" />
          </mxGeometry>
        </mxCell>
        <mxCell id="qz0fs1x4AFDZn3nVevzl-36" value="" style="html=1;verticalAlign=bottom;endArrow=block;labelBackgroundColor=none;fontFamily=Verdana;fontSize=12;edgeStyle=orthogonalEdgeStyle;elbow=vertical;entryX=1.076;entryY=0.675;entryDx=0;entryDy=0;entryPerimeter=0;" parent="qz0fs1x4AFDZn3nVevzl-31" edge="1">
          <mxGeometry x="-0.0904" y="20" relative="1" as="geometry">
            <mxPoint x="55.97000000000003" y="100" as="sourcePoint" />
            <mxPoint x="55.97000000000003" y="119" as="targetPoint" />
            <Array as="points">
              <mxPoint x="54.97000000000003" y="100" />
              <mxPoint x="89.97000000000003" y="100" />
              <mxPoint x="89.97000000000003" y="119" />
            </Array>
            <mxPoint as="offset" />
          </mxGeometry>
        </mxCell>
        <mxCell id="qz0fs1x4AFDZn3nVevzl-37" value="&lt;font style=&quot;font-size: 12px;&quot;&gt;Spill local&lt;/font&gt;" style="edgeLabel;html=1;align=center;verticalAlign=middle;resizable=0;points=[];" parent="qz0fs1x4AFDZn3nVevzl-36" vertex="1" connectable="0">
          <mxGeometry x="-0.7069" y="-1" relative="1" as="geometry">
            <mxPoint x="23" y="-1" as="offset" />
          </mxGeometry>
        </mxCell>
        <mxCell id="NTboLHpkWKxqhe9eNqng-1" value="" style="html=1;verticalAlign=bottom;endArrow=block;labelBackgroundColor=none;fontFamily=Verdana;fontSize=12;edgeStyle=orthogonalEdgeStyle;elbow=vertical;entryX=1.076;entryY=0.675;entryDx=0;entryDy=0;entryPerimeter=0;" edge="1" parent="qz0fs1x4AFDZn3nVevzl-31">
          <mxGeometry x="-0.0904" y="20" relative="1" as="geometry">
            <mxPoint x="55.00000000000003" y="155.49" as="sourcePoint" />
            <mxPoint x="55.00000000000003" y="174.49" as="targetPoint" />
            <Array as="points">
              <mxPoint x="54.00000000000003" y="155.49" />
              <mxPoint x="89.00000000000003" y="155.49" />
              <mxPoint x="89.00000000000003" y="174.49" />
            </Array>
            <mxPoint as="offset" />
          </mxGeometry>
        </mxCell>
        <mxCell id="NTboLHpkWKxqhe9eNqng-2" value="&lt;span style=&quot;font-size: 12px;&quot;&gt;Scan&lt;/span&gt;" style="edgeLabel;html=1;align=center;verticalAlign=middle;resizable=0;points=[];" vertex="1" connectable="0" parent="NTboLHpkWKxqhe9eNqng-1">
          <mxGeometry x="-0.7069" y="-1" relative="1" as="geometry">
            <mxPoint x="23" y="-1" as="offset" />
          </mxGeometry>
        </mxCell>
        <mxCell id="NTboLHpkWKxqhe9eNqng-4" value="" style="html=1;verticalAlign=bottom;endArrow=block;labelBackgroundColor=none;fontFamily=Verdana;fontSize=12;edgeStyle=orthogonalEdgeStyle;elbow=vertical;entryX=1.076;entryY=0.632;entryDx=0;entryDy=0;entryPerimeter=0;" edge="1" parent="qz0fs1x4AFDZn3nVevzl-31">
          <mxGeometry x="0.1226" y="10" relative="1" as="geometry">
            <mxPoint x="55" y="260" as="sourcePoint" />
            <mxPoint x="55" y="284" as="targetPoint" />
            <Array as="points">
              <mxPoint x="89" y="260" />
              <mxPoint x="89" y="284" />
            </Array>
            <mxPoint as="offset" />
          </mxGeometry>
        </mxCell>
        <mxCell id="NTboLHpkWKxqhe9eNqng-5" value="&lt;font style=&quot;font-size: 12px;&quot;&gt;Scan&lt;/font&gt;" style="edgeLabel;html=1;align=center;verticalAlign=middle;resizable=0;points=[];" vertex="1" connectable="0" parent="NTboLHpkWKxqhe9eNqng-4">
          <mxGeometry x="-0.3663" y="1" relative="1" as="geometry">
            <mxPoint x="6" y="5" as="offset" />
          </mxGeometry>
        </mxCell>
        <mxCell id="qz0fs1x4AFDZn3nVevzl-38" value="Spill to S3" style="shape=umlLifeline;perimeter=lifelinePerimeter;whiteSpace=wrap;html=1;container=1;collapsible=0;recursiveResize=0;outlineConnect=0;rounded=1;shadow=0;comic=0;labelBackgroundColor=none;strokeWidth=1;fontFamily=Verdana;fontSize=12;align=center;" parent="1" vertex="1">
          <mxGeometry x="1160" y="420" width="100" height="280" as="geometry" />
        </mxCell>
        <mxCell id="qz0fs1x4AFDZn3nVevzl-39" value="" style="html=1;points=[];perimeter=orthogonalPerimeter;rounded=0;shadow=0;comic=0;labelBackgroundColor=none;strokeWidth=1;fontFamily=Verdana;fontSize=12;align=center;" parent="qz0fs1x4AFDZn3nVevzl-38" vertex="1">
          <mxGeometry x="45" y="140" width="10" height="50" as="geometry" />
        </mxCell>
        <mxCell id="qz0fs1x4AFDZn3nVevzl-40" value="" style="html=1;points=[];perimeter=orthogonalPerimeter;rounded=0;shadow=0;comic=0;labelBackgroundColor=none;strokeWidth=1;fontFamily=Verdana;fontSize=12;align=center;" parent="qz0fs1x4AFDZn3nVevzl-38" vertex="1">
          <mxGeometry x="45" y="250" width="10" height="50" as="geometry" />
        </mxCell>
        <mxCell id="qz0fs1x4AFDZn3nVevzl-41" value="Add File to Mana" style="shape=umlLifeline;perimeter=lifelinePerimeter;whiteSpace=wrap;html=1;container=1;collapsible=0;recursiveResize=0;outlineConnect=0;rounded=1;shadow=0;comic=0;labelBackgroundColor=none;strokeWidth=1;fontFamily=Verdana;fontSize=12;align=center;" parent="1" vertex="1">
          <mxGeometry x="1300" y="420" width="100" height="230" as="geometry" />
        </mxCell>
        <mxCell id="qz0fs1x4AFDZn3nVevzl-43" value="" style="html=1;points=[];perimeter=orthogonalPerimeter;rounded=0;shadow=0;comic=0;labelBackgroundColor=none;strokeWidth=1;fontFamily=Verdana;fontSize=12;align=center;" parent="qz0fs1x4AFDZn3nVevzl-41" vertex="1">
          <mxGeometry x="45" y="189" width="10" height="50" as="geometry" />
        </mxCell>
        <mxCell id="qz0fs1x4AFDZn3nVevzl-44" value="Main" style="shape=umlLifeline;perimeter=lifelinePerimeter;whiteSpace=wrap;html=1;container=1;collapsible=0;recursiveResize=0;outlineConnect=0;rounded=1;shadow=0;comic=0;labelBackgroundColor=none;strokeWidth=1;fontFamily=Verdana;fontSize=12;align=center;" parent="1" vertex="1">
          <mxGeometry x="840" y="420" width="100" height="360" as="geometry" />
        </mxCell>
        <mxCell id="qz0fs1x4AFDZn3nVevzl-45" value="" style="html=1;points=[];perimeter=orthogonalPerimeter;rounded=0;shadow=0;comic=0;labelBackgroundColor=none;strokeWidth=1;fontFamily=Verdana;fontSize=12;align=center;" parent="qz0fs1x4AFDZn3nVevzl-44" vertex="1">
          <mxGeometry x="45" y="100" width="10" height="260" as="geometry" />
        </mxCell>
        <mxCell id="qz0fs1x4AFDZn3nVevzl-46" value="dispatch" style="html=1;verticalAlign=bottom;endArrow=block;labelBackgroundColor=none;fontFamily=Verdana;fontSize=12;edgeStyle=elbowEdgeStyle;elbow=vertical;exitX=1.044;exitY=0.988;exitDx=0;exitDy=0;exitPerimeter=0;entryX=-0.089;entryY=0.012;entryDx=0;entryDy=0;entryPerimeter=0;" parent="1" source="qz0fs1x4AFDZn3nVevzl-39" target="qz0fs1x4AFDZn3nVevzl-43" edge="1">
          <mxGeometry relative="1" as="geometry">
            <mxPoint x="1270" y="560" as="sourcePoint" />
            <Array as="points">
              <mxPoint x="1280" y="609" />
            </Array>
          </mxGeometry>
        </mxCell>
        <mxCell id="qz0fs1x4AFDZn3nVevzl-47" value="return" style="html=1;verticalAlign=bottom;endArrow=open;dashed=1;endSize=8;labelBackgroundColor=none;fontFamily=Verdana;fontSize=12;edgeStyle=elbowEdgeStyle;elbow=vertical;exitX=0.069;exitY=0.998;exitDx=0;exitDy=0;exitPerimeter=0;entryX=1.267;entryY=0.386;entryDx=0;entryDy=0;entryPerimeter=0;" parent="1" source="qz0fs1x4AFDZn3nVevzl-39" edge="1" target="qz0fs1x4AFDZn3nVevzl-32">
          <mxGeometry relative="1" as="geometry">
            <mxPoint x="1034" y="600" as="targetPoint" />
            <Array as="points">
              <mxPoint x="1120" y="609" />
              <mxPoint x="1155" y="580" />
            </Array>
            <mxPoint x="1155" y="580" as="sourcePoint" />
          </mxGeometry>
        </mxCell>
        <mxCell id="qz0fs1x4AFDZn3nVevzl-48" value="dispatch" style="html=1;verticalAlign=bottom;endArrow=block;entryX=0;entryY=0;labelBackgroundColor=none;fontFamily=Verdana;fontSize=12;edgeStyle=elbowEdgeStyle;elbow=vertical;" parent="1" source="qz0fs1x4AFDZn3nVevzl-45" target="qz0fs1x4AFDZn3nVevzl-32" edge="1">
          <mxGeometry relative="1" as="geometry">
            <mxPoint x="960" y="530" as="sourcePoint" />
          </mxGeometry>
        </mxCell>
        <mxCell id="qz0fs1x4AFDZn3nVevzl-49" value="dispatch" style="html=1;verticalAlign=bottom;endArrow=block;entryX=0;entryY=0;labelBackgroundColor=none;fontFamily=Verdana;fontSize=12;edgeStyle=elbowEdgeStyle;elbow=vertical;" parent="1" source="qz0fs1x4AFDZn3nVevzl-32" target="qz0fs1x4AFDZn3nVevzl-39" edge="1">
          <mxGeometry relative="1" as="geometry">
            <mxPoint x="1040" y="540" as="sourcePoint" />
            <Array as="points">
              <mxPoint x="1080" y="560" />
            </Array>
          </mxGeometry>
        </mxCell>
        <mxCell id="qz0fs1x4AFDZn3nVevzl-50" value="return" style="html=1;verticalAlign=bottom;endArrow=open;dashed=1;endSize=8;labelBackgroundColor=none;fontFamily=Verdana;fontSize=12;edgeStyle=elbowEdgeStyle;elbow=horizontal;exitX=0.028;exitY=1.004;exitDx=0;exitDy=0;exitPerimeter=0;entryX=1.063;entryY=0.885;entryDx=0;entryDy=0;entryPerimeter=0;" parent="1" source="qz0fs1x4AFDZn3nVevzl-32" target="qz0fs1x4AFDZn3nVevzl-45" edge="1">
          <mxGeometry relative="1" as="geometry">
            <mxPoint x="900" y="750" as="targetPoint" />
            <Array as="points">
              <mxPoint x="970" y="750" />
              <mxPoint x="1165" y="585.4" />
            </Array>
            <mxPoint x="1025.28" y="689.3100000000001" as="sourcePoint" />
          </mxGeometry>
        </mxCell>
        <mxCell id="qz0fs1x4AFDZn3nVevzl-51" value="" style="group" parent="1" vertex="1" connectable="0">
          <mxGeometry x="1090" y="435" width="48" height="8" as="geometry" />
        </mxCell>
        <mxCell id="qz0fs1x4AFDZn3nVevzl-52" value="" style="shape=image;html=1;verticalAlign=top;verticalLabelPosition=bottom;labelBackgroundColor=#ffffff;imageAspect=0;aspect=fixed;image=https://cdn0.iconfinder.com/data/icons/gcons-2/9/point1-128.png" parent="qz0fs1x4AFDZn3nVevzl-51" vertex="1">
          <mxGeometry width="6" height="6" as="geometry" />
        </mxCell>
        <mxCell id="qz0fs1x4AFDZn3nVevzl-53" value="" style="shape=image;html=1;verticalAlign=top;verticalLabelPosition=bottom;labelBackgroundColor=#ffffff;imageAspect=0;aspect=fixed;image=https://cdn0.iconfinder.com/data/icons/gcons-2/9/point1-128.png" parent="qz0fs1x4AFDZn3nVevzl-51" vertex="1">
          <mxGeometry x="20" width="6" height="6" as="geometry" />
        </mxCell>
        <mxCell id="qz0fs1x4AFDZn3nVevzl-54" value="" style="shape=image;html=1;verticalAlign=top;verticalLabelPosition=bottom;labelBackgroundColor=#ffffff;imageAspect=0;aspect=fixed;image=https://cdn0.iconfinder.com/data/icons/gcons-2/9/point1-128.png" parent="qz0fs1x4AFDZn3nVevzl-51" vertex="1">
          <mxGeometry x="38" width="6" height="6" as="geometry" />
        </mxCell>
        <mxCell id="qz0fs1x4AFDZn3nVevzl-55" value="" style="endArrow=none;dashed=1;html=1;dashPattern=1 3;strokeWidth=4;rounded=0;" parent="1" edge="1">
          <mxGeometry width="50" height="50" relative="1" as="geometry">
            <mxPoint x="889.7099999999999" y="820" as="sourcePoint" />
            <mxPoint x="889.7099999999999" y="780" as="targetPoint" />
          </mxGeometry>
        </mxCell>
        <mxCell id="qz0fs1x4AFDZn3nVevzl-56" value="dispatch" style="html=1;verticalAlign=bottom;endArrow=block;labelBackgroundColor=none;fontFamily=Verdana;fontSize=12;edgeStyle=elbowEdgeStyle;elbow=vertical;entryX=-0.133;entryY=-0.001;entryDx=0;entryDy=0;entryPerimeter=0;exitX=0.956;exitY=0.988;exitDx=0;exitDy=0;exitPerimeter=0;" parent="1" source="qz0fs1x4AFDZn3nVevzl-40" target="qz0fs1x4AFDZn3nVevzl-30" edge="1">
          <mxGeometry relative="1" as="geometry">
            <mxPoint x="1270" y="620" as="sourcePoint" />
            <Array as="points">
              <mxPoint x="1350" y="720" />
            </Array>
            <mxPoint x="1460" y="690" as="targetPoint" />
          </mxGeometry>
        </mxCell>
        <mxCell id="qz0fs1x4AFDZn3nVevzl-33" value="return" style="html=1;verticalAlign=bottom;endArrow=open;dashed=1;endSize=8;labelBackgroundColor=none;fontFamily=Verdana;fontSize=12;edgeStyle=elbowEdgeStyle;elbow=vertical;exitX=0.014;exitY=1.01;exitDx=0;exitDy=0;exitPerimeter=0;" parent="1" source="qz0fs1x4AFDZn3nVevzl-40" edge="1">
          <mxGeometry relative="1" as="geometry">
            <mxPoint x="1040" y="720" as="targetPoint" />
            <Array as="points">
              <mxPoint x="1180" y="720" />
            </Array>
            <mxPoint x="1210" y="700.0000000000001" as="sourcePoint" />
          </mxGeometry>
        </mxCell>
        <mxCell id="qz0fs1x4AFDZn3nVevzl-42" value="dispatch" style="html=1;verticalAlign=bottom;endArrow=block;entryX=0;entryY=0;labelBackgroundColor=none;fontFamily=Verdana;fontSize=12;edgeStyle=elbowEdgeStyle;elbow=vertical;" parent="1" target="qz0fs1x4AFDZn3nVevzl-40" edge="1">
          <mxGeometry relative="1" as="geometry">
            <mxPoint x="1036" y="670" as="sourcePoint" />
            <Array as="points">
              <mxPoint x="1120" y="670" />
              <mxPoint x="1120" y="650" />
            </Array>
          </mxGeometry>
        </mxCell>
      </root>
    </mxGraphModel>
  </diagram>
</mxfile>
